<svg xmlns="http://www.w3.org/2000/svg" xmlns:xlink="http://www.w3.org/1999/xlink" id="图层_1" x="0" y="0" version="1.1" viewBox="0 0 68 68" xml:space="preserve" style="enable-background:new 0 0 68 68"><style type="text/css">.st0{fill:#fce6e9}.st1{fill:#f6606b}.st2{fill:#f5222d}</style><title>end_1</title><g id="图层_2"><g id="图层_1-2"><path d="M34,67.5c-18.5,0-33.5-15-33.5-33.5S15.5,0.5,34,0.5s33.5,15,33.5,33.5S52.5,67.5,34,67.5z" class="st0"/><path d="M34,1c18.2,0,33,14.8,33,33S52.2,67,34,67S1,52.2,1,34S15.8,1,34,1 M34,0C15.2,0,0,15.2,0,34s15.2,34,34,34 s34-15.2,34-34S52.8,0,34,0z" class="st1"/></g><rect width="24" height="24" x="22" y="23" class="st2"/></g></svg>