<svg xmlns="http://www.w3.org/2000/svg" xmlns:xlink="http://www.w3.org/1999/xlink" id="图层_1" x="0" y="0" version="1.1" viewBox="0 0 107 61" xml:space="preserve" style="enable-background:new 0 0 107 61"><style type="text/css">.st0{fill:#fff7e6;stroke:#ffa940;stroke-miterlimit:10}.st1{fill:#ffa940}</style><title>task_1</title><g id="图层_1-2"><path d="M8.9,0.5h89.2c4.6,0,8.4,3.8,8.4,8.4v43.2c0,4.6-3.8,8.4-8.4,8.4H8.9c-4.6,0-8.4-3.8-8.4-8.4V8.9 C0.5,4.3,4.3,0.5,8.9,0.5z" class="st0"/><path d="M56.9,13.5l9.7,9.7h-8.8c-0.6,0-1.1-0.6-1.1-1.1v-8.6H56.9z M45.8,36.5c-0.6,0-1.1,0.6-1.1,1.1 c0,0.6,0.6,1.1,1.1,1.1H59c0.6,0,1.1-0.6,1.1-1.1c0-0.6-0.6-1.1-1.1-1.1H45.8z M45.8,31.1c-0.6,0-1.1,0.6-1.1,1.1 c0,0.6,0.6,1.1,1.1,1.1h6.6c0.6,0,1.1-0.6,1.1-1.1c0-0.6-0.6-1.1-1.1-1.1H45.8z M66.7,25.4v15.4c0,1.9-1.5,3.2-3.2,3.2H43.8 c-1.9,0-3.2-1.5-3.2-3.2v-24c0-1.9,1.5-3.2,3.2-3.2h10.9V23c0,1.5,1.1,2.6,2.6,2.6h9.4V25.4z" class="st1"/></g></svg>