<svg xmlns="http://www.w3.org/2000/svg" xmlns:xlink="http://www.w3.org/1999/xlink" id="图层_1" x="0" y="0" version="1.1" viewBox="0 0 68 68" xml:space="preserve" style="enable-background:new 0 0 68 68"><style type="text/css">.st0{fill:#fcf1e8}.st1{fill:#f9aa68}.st2{fill:#fa8c16}</style><title>start_1</title><g id="图层_2"><g id="图层_1-2"><path d="M34,67.5c-18.5,0-33.5-15-33.5-33.5S15.5,0.5,34,0.5s33.5,15,33.5,33.5S52.5,67.5,34,67.5z" class="st0"/><path d="M34,1c18.2,0,33,14.8,33,33S52.2,67,34,67S1,52.2,1,34S15.8,1,34,1 M34,0C15.2,0,0,15.2,0,34s15.2,34,34,34 s34-15.2,34-34S52.8,0,34,0z" class="st1"/></g></g><path d="M35,17.6c-8.7,0-15.6,7-15.6,15.7S26.4,49,35,49s15.6-7,15.6-15.7S43.7,17.6,35,17.6z M35,46	c-7,0-12.6-5.7-12.6-12.7S28.1,20.6,35,20.6s12.6,5.7,12.6,12.7S42,46,35,46z M38.8,39.4l-5.5-4C33.1,35.2,33,35,33,34.8V24.4	c0-0.4,0.4-0.8,0.8-0.8h2.1c0.4,0,0.8,0.4,0.8,0.8v9.1l4.1,3c0.4,0.2,0.4,0.8,0.2,1.1l-0.9,1.5C39.7,39.5,39.2,39.7,38.8,39.4z" class="st2"/></svg>